<svg width="25" height="139" viewBox="0 0 25 139" fill="none" xmlns="http://www.w3.org/2000/svg">
<path d="M18.778 118.777C19.798 118.777 20.6933 118.981 21.464 119.389C22.2347 119.797 22.8807 120.364 23.402 121.089C23.9233 121.792 24.32 122.619 24.592 123.571C24.864 124.501 25 125.498 25 126.563L25 138.225L0.859999 138.225L0.859998 125.305C0.859998 124.467 1.04133 123.707 1.404 123.027C1.76667 122.347 2.24266 121.769 2.832 121.293C3.39866 120.817 4.056 120.455 4.804 120.205C5.52933 119.933 6.266 119.797 7.014 119.797C8.19266 119.797 9.30333 120.092 10.346 120.681C11.366 121.271 12.1253 122.132 12.624 123.265C13.032 121.883 13.7687 120.795 14.834 120.001C15.8767 119.185 17.1913 118.777 18.778 118.777ZM17.894 123.503C17.4633 123.503 17.0553 123.583 16.67 123.741C16.262 123.877 15.9107 124.07 15.616 124.319C15.3213 124.569 15.0947 124.863 14.936 125.203C14.7547 125.543 14.664 125.917 14.664 126.325L14.664 133.533L21.022 133.533L21.022 126.563C21.022 126.133 20.9427 125.736 20.784 125.373C20.6253 124.988 20.41 124.659 20.138 124.387C19.8433 124.115 19.5033 123.9 19.118 123.741C18.7327 123.583 18.3247 123.503 17.894 123.503ZM4.872 133.533L10.958 133.533L10.958 127.277C10.958 126.484 10.686 125.815 10.142 125.271C9.598 124.705 8.85 124.421 7.898 124.421C6.96867 124.421 6.232 124.682 5.688 125.203C5.144 125.702 4.872 126.325 4.872 127.073L4.872 133.533ZM0.859997 108.746L0.859997 104.598L25 95.4179L25 100.246L18.982 102.49L18.982 110.922L25 113.132L25 117.96L0.859997 108.746ZM15.684 103.34L6.198 106.672L15.684 110.14L15.684 103.34ZM9.53 88.0781L25 88.0781L25 92.7701L0.859997 92.7701L0.859996 89.1321L16.704 76.5521L0.893995 76.5521L0.893995 71.8601L25 71.8601L25 75.6681L9.53 88.0781ZM25 66.8385L0.893995 66.8385L0.893995 62.1465L12.352 62.1465L0.859995 52.0145L0.859995 46.8465L11.57 56.0945L25 46.2685L25 51.5385L14.562 59.0525L17.792 62.1465L25 62.1465L25 66.8385ZM25 20.3541L0.859993 20.3541L0.859993 9.67812C0.859993 8.56745 1.09799 7.54745 1.57399 6.61812C2.02733 5.66612 2.63933 4.85012 3.40999 4.17012C4.15799 3.49012 5.01933 2.95745 5.99399 2.57212C6.94599 2.18678 7.90933 1.99412 8.88399 1.99412C10.448 1.99412 11.876 2.39078 13.168 3.18411C14.4373 3.95478 15.3553 5.00878 15.922 6.34612L25 0.838116L25 6.10811L16.908 11.0381L16.908 15.6621L25 15.6621L25 20.3541ZM12.794 15.6621L12.794 9.78012C12.794 9.34945 12.692 8.95278 12.488 8.59012C12.284 8.20478 12.012 7.87612 11.672 7.60412C11.3093 7.33212 10.89 7.11678 10.414 6.95812C9.93799 6.79945 9.42799 6.72012 8.88399 6.72012C8.31733 6.72012 7.79599 6.81078 7.31999 6.99212C6.84399 7.17345 6.43599 7.42278 6.09599 7.74012C5.73333 8.03478 5.46133 8.38612 5.27999 8.79412C5.07599 9.17945 4.97399 9.57612 4.97399 9.98412L4.97399 15.6621L12.794 15.6621Z" fill="#FEFEFE"/>
<path d="M0.859994 23.7964L25 40.6603L25 45.6924L0.859994 28.8624L0.859994 23.7964Z" fill="#F8C100"/>
</svg>
