<svg width="139" height="25" viewBox="0 0 139 25" fill="none" xmlns="http://www.w3.org/2000/svg">
<path d="M20.2228 18.778C20.2228 19.798 20.0188 20.6933 19.6108 21.464C19.2028 22.2347 18.6361 22.8807 17.9108 23.402C17.2081 23.9233 16.3808 24.32 15.4288 24.592C14.4995 24.864 13.5021 25 12.4368 25H0.774789V0.859999H13.6948C14.5335 0.859999 15.2928 1.04133 15.9728 1.404C16.6528 1.76667 17.2308 2.24267 17.7068 2.832C18.1828 3.39867 18.5455 4.056 18.7948 4.804C19.0668 5.52933 19.2028 6.266 19.2028 7.014C19.2028 8.19267 18.9081 9.30333 18.3188 10.346C17.7295 11.366 16.8681 12.1253 15.7348 12.624C17.1175 13.032 18.2055 13.7687 18.9988 14.834C19.8148 15.8767 20.2228 17.1913 20.2228 18.778ZM15.4968 17.894C15.4968 17.4633 15.4175 17.0553 15.2588 16.67C15.1228 16.262 14.9301 15.9107 14.6808 15.616C14.4315 15.3213 14.1368 15.0947 13.7968 14.936C13.4568 14.7547 13.0828 14.664 12.6748 14.664H5.46679V21.022H12.4368C12.8675 21.022 13.2641 20.9427 13.6268 20.784C14.0121 20.6253 14.3408 20.41 14.6128 20.138C14.8848 19.8433 15.1001 19.5033 15.2588 19.118C15.4175 18.7327 15.4968 18.3247 15.4968 17.894ZM5.46679 4.872V10.958H11.7228C12.5161 10.958 13.1848 10.686 13.7288 10.142C14.2955 9.598 14.5788 8.85 14.5788 7.898C14.5788 6.96867 14.3181 6.232 13.7968 5.688C13.2981 5.144 12.6748 4.872 11.9268 4.872H5.46679ZM30.2541 0.859999H34.4021L43.5821 25H38.7541L36.5101 18.982H28.0781L25.8681 25H21.0401L30.2541 0.859999ZM35.6601 15.684L32.3281 6.198L28.8601 15.684H35.6601ZM50.9219 9.53V25H46.2299V0.859999H49.8679L62.4479 16.704V0.893998H67.1399V25H63.3319L50.9219 9.53ZM72.1615 25V0.893998H76.8535V12.352L86.9855 0.859999H92.1535L82.9055 11.57L92.7315 25H87.4615L79.9475 14.562L76.8535 17.792V25H72.1615ZM118.646 25V0.859999H129.322C130.433 0.859999 131.453 1.098 132.382 1.574C133.334 2.02733 134.15 2.63933 134.83 3.41C135.51 4.158 136.043 5.01933 136.428 5.994C136.813 6.946 137.006 7.90933 137.006 8.884C137.006 10.448 136.609 11.876 135.816 13.168C135.045 14.4373 133.991 15.3553 132.654 15.922L138.162 25H132.892L127.962 16.908H123.338V25H118.646ZM123.338 12.794H129.22C129.651 12.794 130.047 12.692 130.41 12.488C130.795 12.284 131.124 12.012 131.396 11.672C131.668 11.3093 131.883 10.89 132.042 10.414C132.201 9.938 132.28 9.428 132.28 8.884C132.28 8.31733 132.189 7.796 132.008 7.32C131.827 6.844 131.577 6.436 131.26 6.096C130.965 5.73333 130.614 5.46133 130.206 5.28C129.821 5.076 129.424 4.974 129.016 4.974H123.338V12.794Z" fill="#FEFEFE"/>
<path d="M115.204 0.859999L98.3396 25H93.3076L110.138 0.859999H115.204Z" fill="#F8C100"/>
</svg>
